<svg xmlns="http://www.w3.org/2000/svg" width="59.704" height="59.934"><path d="M13.343 51.975l-13-7.652-.281-11.676C-.093 26.225.054 20.97.389 20.97c.727 0 24.612 13.845 25.738 14.92.43.41.655 5.92.5 12.241l-.284 11.495zm19.5-3.874V36.27l13.068-7.65c7.187-4.207 13.276-7.649 13.532-7.649.255 0 .337 5.257.182 11.682l-.282 11.683-5 2.93a7909.72 7909.72 0 0 0-13.25 7.8l-8.25 4.87zM16.11 24.203C8.83 19.95 2.867 16.205 2.859 15.881c-.014-.542 4.488-2.91 5.531-2.91.25 0 .453.658.453 1.464 0 2.033 3.188 3.535 7.5 3.535 4.662 0 7.5-1.54 7.5-4.07 0-1.668-.321-1.828-1.934-.965-2.74 1.467-9.344 1.284-11.537-.32-2.822-2.063-1.222-4.352 3.613-5.169 4.895-.827 7.858-2.404 7.858-4.181 0-.673.87-1.69 1.935-2.26 4.023-2.152 14.065-.582 14.065 2.2 0 1.834 2.911 3.405 7.859 4.241 4.835.817 6.434 3.106 3.613 5.169-2.193 1.604-8.797 1.787-11.537.32-1.613-.863-1.935-.703-1.935.965 0 2.53 2.838 4.07 7.5 4.07 4.313 0 7.5-1.502 7.5-3.535 0-.806.204-1.465.453-1.465 1.078 0 5.547 2.379 5.547 2.952 0 .64-23.247 14.473-26 15.47-.833.303-7.38-2.892-14.734-7.189zm19.512.21c3.04-2.128 3.02-4.865-.028-3.766-2.859 1.032-9.715.989-12-.076-1.264-.589-1.75-.385-1.75.736 0 2.334 3.997 4.663 8 4.663 1.956 0 4.556-.7 5.778-1.556zm.762-15.475c2.585-2.146 1.809-4.102-1.29-3.25-3.572.984-8.15.947-11.091-.087-1.95-.686-2.284-.518-1.992.998.771 4.003 10.466 5.581 14.373 2.339z"/></svg>