<svg xmlns="http://www.w3.org/2000/svg" width="19.729" height="17.862"><path d="M2.847 16.796C-.65 7.15-.67 7 1.404 7c1.27 0 2.567-1.248 3.64-3.5C5.965 1.575 7.082 0 7.53 0c1.147 0 1.027.687-.712 4.05L5.292 7h9.102L12.87 4.05C11.13.687 11.01 0 12.157 0c.45 0 1.566 1.575 2.484 3.5C15.71 5.738 17.017 7 18.267 7c1.918 0 1.92.1.174 5.25l-1.78 5.25-6.672.296c-4.774.212-6.805-.073-7.14-1zm12.46-1.73c.57-1.064 1.037-2.19 1.037-2.5 0-.31-2.925-.566-6.5-.566s-6.5.255-6.5.566c0 .31.465 1.436 1.035 2.5 1.477 2.76 9.45 2.76 10.928 0zM17.345 9.5c0-1.2-1.5-1.5-7.5-1.5s-7.5.3-7.5 1.5 1.5 1.5 7.5 1.5 7.5-.3 7.5-1.5z"/></svg>