<svg xmlns="http://www.w3.org/2000/svg" width="85.632" height="34.897"><path d="M4.19 33.73c2.288-1.397 67.476-2.368 73.5-1.096l3.5.738-5 .73c-2.75.403-20.526.758-39.5.79-27.55.045-34.098-.19-32.5-1.163zm8.373-10.97c-.125-6.157-.142-6.194-1.176-2.5-.662 2.36-1.65 3.75-2.673 3.75-.95 0-2.222-1.552-3.07-3.75l-1.447-3.75-.504 5.5c-.366 3.998-.913 5.5-2.004 5.5-2.327 0-2.215-21.82.114-22.278 1.14-.224 2.275 1.31 3.862 5.22 1.236 3.045 2.606 5.315 3.043 5.045.437-.27 1.372-2.74 2.076-5.49.923-3.6 1.77-4.998 3.028-4.998 1.534 0 1.785 1.306 2.06 10.75.174 5.912-.077 11.312-.557 12-1.8 2.576-2.63 1.064-2.754-5zm14.166 4.797c-1.616-1.946-.932-4.945 1.22-5.36 1.288-.247 1.74.333 1.74 2.24 0 1.88.522 2.572 1.94 2.572 2.63 0 2.908-.764 2.183-6-.605-4.37-.74-4.515-4.624-5-3.935-.493-4.006-.574-4.32-4.964-.385-5.43 1.305-7.037 7.403-7.037 4.473 0 6.944 2.476 3.71 3.717-.927.356-1.85.115-2.067-.538-.216-.65-1.48-1.18-2.81-1.18-2.153 0-2.417.436-2.417 4 0 3.717.198 4 2.808 4 4.17 0 6.04 1.95 6.223 6.5.248 6.092.19 6.227-3.18 7.402-4.24 1.478-6.37 1.38-7.81-.355zm-7.52-9.125c-.573-7.63-.442-9.853.618-10.508 2.22-1.373 2.678.147 3.028 10.055.286 8.114.1 9.517-1.294 9.8-1.376.278-1.74-1.167-2.353-9.348zm20.293-1.382c-.346-12.222-.24-13.04 1.67-13.04.87 0 1.56 2.064 2.022 6.053.565 4.864 1.026 5.99 2.35 5.74 1.228-.233 1.72-1.638 1.947-5.553.217-3.768.71-5.24 1.75-5.24.796 0 1.48.337 1.518.75 1.833 19.34 1.743 22.25-.687 22.25-.93 0-1.39-1.232-1.4-3.75-.018-4.642-1.155-6.56-3.604-6.08-1.504.295-1.88 1.26-1.88 4.824 0 3.38-.408 4.536-1.687 4.79-1.486.298-1.724-.978-2-10.744zm13.87-.64c-.654-12.21-.487-13.4 1.875-13.4 1.078 0 1.44 1.37 1.44 5.44 0 2.993.37 5.67.82 5.947.45.278 2.027-1.96 3.505-4.975 2.415-4.925 4.96-7.46 6.223-6.2.253.253-.582 2.43-1.856 4.84l-2.315 4.378 2.86 6.805c1.57 3.742 2.585 7.245 2.252 7.784-1.363 2.204-3.193.7-4.89-4.02-2.453-6.82-4.344-6.496-5.555.955-.34 2.092-1.215 3.646-2.153 3.827-1.34.258-1.676-1.477-2.206-11.382zm16.914 10.864c-1.193-1.193-.616-17.858.68-19.63 1.72-2.354 9.467-4.09 11.334-2.542.79.656 1.39 3.002 1.39 5.446 0 2.5.522 4.507 1.25 4.802.962.39.93.73-.146 1.482-.944.66-1.195 1.975-.777 4.065.74 3.696-.026 6.112-1.935 6.112-.994 0-1.394-1.36-1.397-4.75-.005-4.726-.023-4.752-3.5-4.93l-3.496-.178v4.82c0 3.216-.468 5.003-1.403 5.36-.77.297-1.67.27-2-.058zM79.69 10.51c0-4.594-.788-5.287-4.42-3.894-1.066.41-1.58 1.873-1.58 4.5 0 3.66.18 3.893 3 3.893 2.888 0 3-.167 3-4.5zm-61-7.5c0-3.532 2.467-4.144 3.334-.827.678 2.592.068 3.826-1.894 3.826-.934 0-1.44-1.055-1.44-3z" fill="#191919"/></svg>