<svg xmlns="http://www.w3.org/2000/svg" width="23" height="20"><defs><clipPath id="a"><path d="M0 20.168h23.494V0H0z"/></clipPath></defs><g clip-path="url(#a)" transform="matrix(1.33333 0 0 -1.33333 0 20)"><path d="M10.91 10.86c.119-.1.208-.23.381-.274.073-.166.23-.244.435-.276.034.112.254.036.271.165.128.017.122.17.218.22-.013.41-.095.749-.272.992-.556.315-1.23-.028-1.034-.825m4.026 2.258c-.094-.252-.169-.525-.434-.606-.013.078-.09.093-.109.165-.01.157.154.138.217.22.12.064.18.185.326.221-.005.067.081.035 0 0m-.216-4.189c-.113-.638-.453-1.048-.763-1.487.044-.283-.076-.4-.054-.66a3.177 3.218 0 0 1-.272-.773c-.15-.198-.244-.451-.38-.662-.27-.407-.572-.78-.871-1.158-.278-.415-.67-.718-.98-1.1-.308-.368-.692-.66-1.033-.994a3.647 3.694 0 0 1-.925-.496 3.715 3.764 0 0 1-.49-.22c-.13-.108-.366-.108-.49-.22-.798-.11-1.69-.127-2.61-.11-.757.077-1.554.118-2.232.275-.678.141-1.11.53-1.687.771.112.18.466.115.707.165.023.123.29.002.326.111.189-.044.21.082.382.055.413.15.903.224 1.251.44.207.103.298.323.49.442a.55.55 0 0 0 .162.33c.035.205.149.328.11.606.081.156.22.255.217.496-.054.11-.094.236-.217.277-.02.146-.278.05-.326.164-.188-.023-.306.023-.436.056-.113.032-.357-.067-.38.055-.62.017-.955.32-1.362.55.317.196.758.262.98.553.379.056.776.096.817.495 0 .533-.566.492-.98.606-.568.492-.877 1.244-1.306 1.874.175.117.415.169.544.33.334-.042.396.187.49.387.014.363-.244.45-.435.607a2.548 2.58 0 0 0-.49.55c-.002.61-.016 1.229.054 1.764.047.01.052-.021.055-.055.166-.327.411-.576.598-.882.39-.265.68-.634 1.143-.825.332-.308.815-.464 1.143-.773.44-.196.85-.424 1.251-.661.492-.146.776-.501 1.47-.442.145.073.288.15.435.221.189.34-.043.804.108 1.213.187.49.585.767.925 1.102.213.115.408.25.598.387.255.071.496.16.708.275.276.013.524.057.762.11h.925c.18-.04.349-.09.543-.11.155-.103.28-.234.49-.276.58-.516.933-1.261 1.035-2.26-.091-.361.037-.65 0-1.103m2.502 3.031c-.167.273-.667.207-1.034.277h-.816c.104.262.252.48.382.716.04.326.186.546.163.937.095.124.129.31.217.44.076.109.178.356.054.497-.037.164-.216.184-.435.165a.372.376 0 0 1-.163-.11c-.329-.322-.57-.754-.925-1.047-.008-.006-.045 0-.055 0-.064-.003-.024-.035-.055-.055-.108-.073-.189-.113-.27-.165-.21-.132-.402-.331-.654-.387-.39.157-.85.243-1.36.276-.85-.076-1.691-.16-2.232-.55-.668-.261-1.083-.776-1.578-1.213-.035-.238-.25-.297-.271-.552-.004-.033-.009-.065-.054-.055.032-.179-.037-.257-.055-.385 0-.1.147-.322 0-.387-.603.09-1.09.469-1.578.717-.527.268-1.078.448-1.523.826-.525.24-.925.607-1.305.992-.154.232-.398.369-.49.662-.28.122-.13.679-.544.662-.232.032-.253-.148-.327-.276-.051-.168-.264-.173-.272-.386-.003-.034-.008-.066-.055-.055-.124-.81-.387-1.482-.38-2.425.095-.309.256-.549.435-.772-.307-.037-.526-.165-.654-.386-.043-.798.278-1.225.545-1.709.098-.284.258-.508.435-.716.013-.17.152-.214.218-.33.013-.079.09-.094.11-.166-.03-.079.21-.134.053-.164-.303-.098-.746-.052-.925-.276-.08-.209-.08-.62 0-.827.025-.177.207-.194.218-.386.367-.31.793-.555 1.197-.827.422-.123.89-.2 1.36-.275-.075-.255-.248-.41-.435-.552-.573-.283-1.358-.352-2.014-.55-.407-.029-.702-.171-1.142-.166C.764 2.884.38 2.923.19 2.814.103 2.762.118 2.742.028 2.65c-.098-.307.082-.55.326-.662-.004-.189.162-.206.273-.277.066-.135.186-.215.326-.275.4-.348.931-.564 1.415-.827.609-.136 1.21-.28 1.85-.386C4.875.137 5.613.131 6.285.06h.707c.375-.1.904-.041 1.36-.057.07.076.237.055.38.056.385.2.88.285 1.198.55.422.18.727.477 1.144.662.636.568 1.421.985 1.849 1.764.15.142.257.326.327.55.194.117.282.338.435.497.297.305.518.687.761 1.047.235.37.424.784.654 1.157-.008.302.224.36.217.662.142.168.13.492.272.66-.024.19.022.31.055.443.034.953-.035 1.801-.218 2.534.431.115.867.224 1.197.44.386.138.733.434.598.938"/></g></svg>