<svg xmlns="http://www.w3.org/2000/svg" width="148.675" height="71.892"><path d="M115.91 69.98c-1.353-2.528-1.313-4.067.105-4.067 1.367 0 3.784 3 3.828 4.75.05 1.957-2.783 1.464-3.933-.684zm3.3-3.634c-.965-2.517 1.29-4.003 2.537-1.67 1.043 1.948.617 3.237-1.07 3.237-.476 0-1.135-.705-1.466-1.567zM28.876 64.93c0-.63.405-1.906.9-2.832.797-1.488.233-1.685-4.842-1.685-3.436 0-6.42.56-7.425 1.393-2.18 1.806-3.334.656-1.526-1.522 1.836-2.21 1.97-4.99.783-16.37-.624-6-.644-11.28-.054-14.33 1.234-6.368.662-8.088-3.423-10.288-1.877-1.01-3.412-2.185-3.412-2.61 0-1.278 2.918-.873 5.394.75 2.08 1.363 2.455 1.363 3.586 0 .982-1.183 3.557-1.523 11.53-1.523H40.65l-.137-5.25c-.136-5.16-.072-5.282 3.778-7.16 3.558-1.738 4.29-1.784 7.97-.5 2.59.902 4.893 2.67 6.392 4.91 2.033 3.036 5.578 6 3.868 3.235-.348-.564.056-1.29.9-1.613.867-.333 1.777.054 2.1.895.313.816.957 1.483 1.43 1.483.474 0 .62-.63.325-1.398-.295-.77-.043-1.704.56-2.077 1.255-.776 5.997 3.34 6.023 5.225.01.688.457 1.25.996 1.25.602 0 .55-.937-.132-2.436-1.145-2.514-.6-5.564.997-5.564.497 0 1.22 1.463 1.608 3.25.68 3.146.732 3.175 1.623.917 1.243-3.145 3.31-2.244 3.925 1.71.5 3.207.504 3.21 2.277 1.127.977-1.15 2.245-1.8 2.817-1.446.57.355 1.287-.3 1.59-1.456.3-1.155 1.22-2.1 2.04-2.1 1.092 0 1.324.67.864 2.5-1.014 4.042 1.152 2.868 3.228-1.75 2.814-6.26 6.222-8.952 12.034-9.51 4.062-.39 5.285-.105 7.033 1.643 2.272 2.274 2.677 5.508 1.18 9.444-.907 2.387-.772 2.48 4.58 3.148 4.335.542 5.89.35 7.264-.893 2.22-2.01 3.477-2.03 2.715-.044-.36.933.09 1.79 1.142 2.176.953.35 2.096 1.238 2.54 1.973.61 1.01 1.417.606 3.338-1.676 1.393-1.656 3.027-3.01 3.63-3.01.605 0-.147 1.3-1.67 2.89-1.747 1.823-2.37 3.137-1.687 3.56.595.367 1.082 2.854 1.082 5.527 0 6.736.692 8.26 3.152 6.942 1.074-.575 2.717-.886 3.65-.69 1.203.25.485 1.062-2.465 2.784-3.895 2.275-4.204 2.786-4.814 7.96-.36 3.04-1.498 7.84-2.532 10.666-1.034 2.827-1.61 5.408-1.282 5.737.33.328-1.16 1.334-3.305 2.235-3.623 1.52-5.28 1.515-22.905-.06C97.23 59.47 83.178 58.9 74.387 59.09l-14.988.323-1.317 2.75c-1.696 3.542-4.58 3.855-3.247.353l.91-2.397-10.888-.09c-10.835-.086-10.895-.073-12.186 2.575-1.363 2.796-3.797 4.287-3.797 2.326zM43.86 39.164c-.008-7.012-.413-13.378-.9-14.145-1.643-2.597-3.577-.374-5.46 6.275-1.03 3.64-2.155 6.615-2.5 6.608-.343-.006-1.898-3.156-3.454-7-1.556-3.842-3.13-6.98-3.5-6.97-2.9.065-3.315 2.01-2.997 14.09.305 11.618.45 12.393 2.325 12.393 1.82 0 1.977-.58 1.745-6.5-.238-6.063-.15-6.365 1.312-4.5.862 1.1 1.825 3.26 2.14 4.802.84 4.102 4.494 3.356 5.4-1.102 1.15-5.654 1.903-4.81 1.903 2.134 0 6 .2 6.666 2 6.666 1.896 0 2-.66 1.985-12.75zm25.483 10.664c1.015-1.05 1.195-2.962.7-7.414-.642-5.768-.784-6.01-3.668-6.274-7.255-.664-7.5-.868-7.5-6.246 0-4.826.09-4.98 2.893-4.98 1.65 0 3.14.644 3.47 1.5.657 1.715 1.53 1.852 3.573.56 1.19-.753 1.212-1.178.128-2.484-1.558-1.878-7.836-2.093-11.56-.396-2.398 1.093-2.57 1.597-2.298 6.75l.295 5.57 4.172.303c5.195.378 6.073 1.425 6.456 7.696.302 4.945.272 5-2.66 5-2.617 0-2.946-.325-2.78-2.75.143-2.08-.264-2.75-1.67-2.75-2.005 0-3.747 5.013-2.463 7.09.966 1.562 11.163.634 12.913-1.176zm17.444-7.27c-.13-12.006-1.114-18.144-2.912-18.144-1.156 0-1.522 1.377-1.598 6-.09 5.634-.25 6.02-2.615 6.304-2.43.292-2.543.05-3.22-6.81-.582-5.92-.983-7.06-2.384-6.79-1.23.237-1.67 1.327-1.633 4.06.314 23.498.34 23.736 2.542 23.736 1.86 0 2.067-.526 1.87-4.75-.326-7.02-.23-7.25 3.038-7.25 2.99 0 3 .02 3 5.834 0 6.28.42 7.327 2.598 6.49 1.054-.404 1.38-2.556 1.314-8.68zm-34.274 6.856c1.023-2.665-1.03-21.807-2.388-22.254-2.106-.695-2.515 2.37-1.77 13.28.55 8.1 1.038 10.473 2.148 10.473.79 0 1.694-.675 2.01-1.5zM93.7 47.015c.312-3.274 2.723-8.102 4.045-8.102.352 0 1.687 2.7 2.967 6 1.72 4.44 2.825 6 4.245 6 2.622 0 2.427-1.59-1.205-9.812-3.45-7.813-3.383-9.69.568-15.51 2.24-3.302 2.31-3.677.68-3.677-2.34 0-4.11 2.152-7.626 9.275-1.568 3.175-3.198 5.425-3.622 5-.424-.426-.908-3.7-1.074-7.275-.263-5.635-.558-6.5-2.22-6.5-1.757 0-1.885.636-1.522 7.5.218 4.125.406 10.554.418 14.287.02 6.21.19 6.763 2.02 6.5 1.472-.21 2.087-1.185 2.325-3.685zm19.175-2.38c.275-3.168.837-5.75 1.25-5.74.412.01 2.367.018 4.343.018h3.592l-.342 5.538c-.314 5.062-.17 5.515 1.657 5.25 1.676-.24 2.05-1.175 2.31-5.765.17-3.013.844-5.808 1.495-6.21.857-.53.714-1.09-.516-2.022-1.113-.843-1.804-3.02-1.996-6.29l-.293-5-5.67.022c-9.03.034-9.83 1.272-9.83 15.207 0 10.334.166 11.387 1.75 11.086 1.352-.257 1.864-1.643 2.25-6.092zm3.25-8.515c-3.022-.31-3.25-.592-3.235-4.02.02-4.81 1.014-6.218 4.568-6.475 2.816-.204 2.928-.043 3.227 4.678.36 5.647-.13 6.27-4.56 5.817zM51.05 21.42c-.395-3.615-.65-3.922-2.632-3.162-.932.358-1.543 1.82-1.543 3.694 0 2.643.332 3.053 2.25 2.78 1.85-.262 2.192-.85 1.924-3.31zm8.825 42.462c0-.533.675-.97 1.5-.97s1.5.178 1.5.394c0 .217-.675.652-1.5.97-.825.316-1.5.14-1.5-.394zm81.74-17.56c-1.33-1.33.417-2.41 3.902-2.41 2.372 0 3.39.41 3.114 1.25-.447 1.366-5.906 2.267-7.014 1.16zM.082 44.794c.51-1.528 6.578-3.042 7.328-1.828.645 1.043-.266 1.546-4.402 2.434-2.584.556-3.265.415-2.925-.605zm30.295-31.882c.34-.55 1.068-1 1.618-1s.722.45.382 1c-.34.55-1.068 1-1.618 1s-.722-.45-.382-1zm-9.94-2.706c-.334-.87-.39-1.796-.127-2.06.726-.726 3.567.57 3.567 1.628 0 1.686-2.824 2.04-3.44.432zm102.44.813c0-.49.675-1.152 1.5-1.468.914-.35 1.5-.002 1.5.893 0 .808-.675 1.468-1.5 1.468s-1.5-.4-1.5-.893z"/></svg>