<svg xmlns="http://www.w3.org/2000/svg" width="62.1" height="36.442"><defs><clipPath id="a"><path d="M0 27.332h46.575V0H0z"/></clipPath></defs><g clip-path="url(#a)" transform="matrix(1.33333 0 0 -1.33333 0 36.442)" fill="#63d1bb"><path d="M3.023 24.615h40.202V2.382H3.023zm39.647 2.717H3.904A3.905 3.905 0 0 1 0 23.427V3.905A3.905 3.905 0 0 1 3.904 0H42.67a3.906 3.906 0 0 1 3.905 3.905v19.522a3.906 3.906 0 0 1-3.905 3.905"/><path d="M23.288 18.813a5.315 5.315 0 1 0 0-10.63 5.315 5.315 0 0 0 0 10.63M6.928 6.287h32.395V20.71H6.928z"/></g></svg>