<svg xmlns="http://www.w3.org/2000/svg" width="32" height="37"><defs><clipPath id="a"><path d="M0 37.301h31.972V0H0z"/></clipPath></defs><g clip-path="url(#a)" transform="matrix(1.33333 0 0 -1.33333 0 37)"><path d="M0 11.914C0 5.336 5.373 0 12 0c0 6.58-5.373 11.914-12 11.914m12 9.928a3.334 3.31 0 0 0 0-6.618 3.335 3.311 0 0 0-3.334 3.309c0 1.827 1.494 3.309 3.334 3.309m-8.527-6.288a3.335 3.311 0 0 1 3.333-3.309c.7 0 1.354.218 1.887.583l-.027-.251A3.335 3.311 0 0 1 12 9.267c1.84 0 3.333 1.482 3.333 3.31l-.027.25a3.3 3.277 0 0 1 1.887-.583 3.335 3.311 0 0 1 3.333 3.31 3.316 3.293 0 0 1-1.907 2.979c1.12.529 1.907 1.662 1.907 2.978a3.334 3.31 0 0 1-5.22 2.728l.027.25a3.334 3.31 0 0 1-6.667 0l.027-.25a3.334 3.31 0 0 1-5.22-2.728 3.317 3.293 0 0 1 1.907-2.978 3.318 3.294 0 0 1-1.907-2.979M12 0c6.626 0 12 5.336 12 11.914-6.627 0-12-5.335-12-11.914" fill="#63d1bb"/></g></svg>