<svg xmlns="http://www.w3.org/2000/svg" width="110.409" height="45.302"><path d="M89.056 44.136c-.97-.97-10.47-1.188-42.193-.97-33.904.23-41.414.033-43.697-1.148L.41 40.59.072 25.013C-.277 8.744.578 3.266 3.707 1.724c.936-.46 20.377-.97 43.202-1.132 22.824-.16 45.646-.386 50.715-.5C110.74-.202 110.21-1.115 110.32 22.03l.09 18.75-6.5 2.276c-7.266 2.544-12.97 2.96-14.854 1.08zm-63.59-9.84c.37-.6.35-6.7-.046-13.554-.61-10.58-.957-12.417-2.298-12.16-.985.19-2.394 2.935-3.75 7.304l-2.17 7-2-4.5c-1.102-2.475-2.324-5.513-2.716-6.75-.76-2.405-4.055-3.088-4.823-1-.253.687-.243 6.312.022 12.5.434 10.154.663 11.25 2.352 11.25 1.623 0 1.88-.833 1.936-6.25.062-6.095.098-6.176 1.426-3.25.748 1.65 1.612 3.806 1.92 4.793.87 2.787 4.568.348 4.668-3.08.1-3.434.585-2.037 1.403 4.036.62 4.6 2.468 6.26 4.075 3.66zm21.878.114c2.32-.882 2.565-1.495 2.565-6.428 0-6.426-1.627-8.596-6.44-8.596-3.118 0-3.33-.23-3.862-4.205-.31-2.312-.343-4.562-.072-5 .845-1.368 4.408-.867 5.01.706.86 2.24 4.363 1.893 4.363-.433 0-2.394-3.08-3.463-7.556-2.623-4.38.822-6.445 2.966-6.445 6.693 0 4.764 1.63 6.863 5.334 6.863 4.443 0 5.665 1.553 5.665 7.2 0 4.453-.182 4.8-2.5 4.8-1.953 0-2.5-.512-2.5-2.334 0-2.842-.747-3.7-2.6-2.99-.82.315-1.4 1.942-1.4 3.93 0 3.283.127 3.394 3.934 3.394 2.164 0 5.09-.44 6.5-.976zm17.41.092c1.074-.68 1.2-3.304.622-12.985-.645-10.804-.923-12.13-2.546-12.13-1.516 0-1.872.963-2.12 5.75-.267 5.092-.558 5.785-2.55 6.068-2.133.303-2.25-.015-2.25-6.083 0-6.844-.392-7.907-2.6-7.06-1.102.423-1.4 3.292-1.4 13.43 0 12.227.102 12.894 2 12.894 2.162 0 2.27-.36 2.016-6.75-.154-3.898.036-4.25 2.3-4.25 2.91 0 3.683 1.59 3.683 7.58 0 4.496.45 5.054 2.844 3.536zm18.8-.637c.322-.836-.753-4.804-2.387-8.817l-2.972-7.297 2.71-5.682c1.844-3.87 2.3-5.682 1.428-5.682-1.752 0-4.446 3.62-7.407 9.953-2.247 4.805-2.546 5.083-3.15 2.928-.367-1.31-.713-4.493-.767-7.073-.056-2.58-.59-4.994-1.188-5.363-2.576-1.592-3.094 1.563-2.378 14.498.627 11.345.95 13.11 2.346 12.845 1.034-.195 1.737-1.546 1.946-3.74.18-1.887 1.145-4.47 2.143-5.738l1.813-2.307 1.714 4.248a624.44 624.44 0 0 1 2.583 6.498c1 2.59 2.716 2.94 3.565.73zm-50.423-10.01c-.32-11.485-.584-12.65-2.683-11.846-1.2.46-1.538 2.29-1.538 8.357 0 10.317.813 14.206 2.883 13.784 1.38-.28 1.575-1.78 1.338-10.296zm56.58 4.203l.303-5.81 3.198.686c1.76.377 3.325.797 3.48.933.155.136.553 2.542.885 5.346.543 4.59.79 5 2.47 4.1 1.43-.766 1.864-2.14 1.864-5.904 0-2.7.476-5.2 1.06-5.56.69-.428.53-1.058-.458-1.81-.91-.693-1.634-3.153-1.81-6.154-.282-4.804-.417-5.012-3.442-5.306-4.296-.418-10.174 2.21-11.245 5.027-.485 1.274-.643 6.492-.352 11.594.445 7.816.782 9.23 2.137 8.972 1.215-.23 1.683-1.73 1.91-6.114zm.2-11.09c0-5.177.876-6.582 4.106-6.582 2.805 0 2.893.152 2.893 5v5h-3.5c-3.318 0-3.5-.18-3.5-3.42zM32.15 5.87c-.565-2.96-3.503-3.08-4.064-.167-.62 3.214.57 4.885 2.676 3.76 1.345-.72 1.742-1.747 1.39-3.593z"/></svg>