<svg xmlns="http://www.w3.org/2000/svg" width="39.472" height="62"><path d="M10.736 60c0-1.852.667-2 9-2 8.334 0 9 .148 9 2s-.666 2-9 2c-8.333 0-9-.148-9-2zm4.5-6c.34-.55 2.365-1 4.5-1s4.16.45 4.5 1c.382.617-1.342 1-4.5 1-3.157 0-4.881-.383-4.5-1zm.708-7.514C13.762 38.33 14.75 35 19.354 35c5.63 0 6.561 2.564 4.175 11.486C22.492 50.363 21.956 51 19.736 51s-2.755-.637-3.792-4.514zM18.736 31c0-1.1.45-2 1-2s1 .9 1 2-.45 2-1 2-1-.9-1-2zm-13.5-3c-.34-.55-1.747-1-3.126-1-1.928 0-2.384-.405-1.97-1.75.297-.962 1.252-4.9 2.123-8.75.87-3.85 2.025-8.688 2.566-10.75L5.813 2h5.962c3.307 0 5.961-.445 5.961-1 0-.55.9-1 2-1s2 .45 2 1c0 .555 2.654 1 5.962 1h5.961l.984 3.75c.541 2.063 1.696 6.9 2.567 10.75.87 3.85 1.825 7.787 2.122 8.75.408 1.326-.035 1.75-1.828 1.75-1.302 0-2.855.487-3.45 1.082-.776.776-1.66.721-3.126-.194-1.601-1-2.607-1.02-4.645-.091-2.024.922-3.04.911-4.574-.046-1.563-.976-2.383-.976-3.945 0-1.534.957-2.551.968-4.574.046-2.01-.916-3.037-.914-4.514.009-2.324 1.45-2.651 1.47-3.44.194z"/></svg>