<svg xmlns="http://www.w3.org/2000/svg" height="33.5" width="26.5"><defs><clipPath id="a"><path d="M0 195.325h154.384V0H0z"/></clipPath></defs><path d="M24.767 12.047l-11.58-6.814v-.001h-.002v.001L1.733 12.04V2.945L13.25 1.74l11.517 1.205zm-.01 1.206l-3.15 1.853-1.455.856-6.936-4.12-.012 1.2 5.93 3.519-.053.03-.128.076-.842.495-4.895-2.907-.012 1.2 3.864 2.293-.912.608-.022.014-2.918-1.717-.012 1.199 1.915 1.126-1.95 1.169-11.41-6.77L13.184 6.52v.001zm.01 11.393l-11.517 6.84-11.517-6.84V14.71l11.468 6.814.019 1.235-7.867-4.674-.012 1.199 7.898 4.738.02 1.268-7.896-4.69-.011 1.2 7.898 4.738 7.974-4.763V20.57l-.01.006v-3.915l3.553-2.119zM13.389.014L13.25 0 0 1.387V25.63l13.25 7.87 13.25-7.87V1.387z"/><g clip-path="url(#a)" transform="matrix(.17362 0 0 -.17235 -.176 33.59)"><path d="M143.852 124.97l-67.02 39.508v.01l-.008-.005-.008.005v-.01l-66.284-39.462v52.73l66.661 6.99 66.66-6.99zm-.054-6.992l-18.236-10.744-8.419-4.96-40.149 23.884-.066-6.951L111.245 98.8l-.304-.18-.739-.435-4.876-2.872-28.332 16.854-.066-6.951L99.29 91.918l-5.276-3.53-.128-.076-16.892 9.95-.066-6.95 11.084-6.527-11.29-6.78-66.045 39.26 66.14 39.755v-.007zm.054-66.06l-66.66-39.662-66.66 39.663v57.615l66.374-39.505.111-7.16-45.534 27.1-.067-6.951 45.715-27.475.113-7.35-45.7 27.186-.066-6.95 45.714-27.475 46.152 27.616v6.982l-.057-.034v22.705l20.565 12.28zm-65.855 142.82l-.807.085-76.69-8.04V46.215L77.192.582l76.692 45.633v140.568z"/></g></svg>