<svg xmlns="http://www.w3.org/2000/svg" viewBox="0 0 1533.333 45.333"><defs><clipPath id="a"><path d="M0 34h1150V0H0z"/></clipPath></defs><g clip-path="url(#a)" transform="matrix(1.33333 0 0 -1.33333 0 45.333)"><path d="M1121.252 34c-14.375 0-14.375-14-28.75-14-14.373 0-14.373 14-28.747 14s-14.374-14-28.748-14c-14.375 0-14.375 14-28.75 14-14.374 0-14.374-14-28.748-14-14.375 0-14.375 14-28.75 14-14.373 0-14.373-14-28.748-14-14.375 0-14.375 14-28.75 14-14.373 0-14.373-14-28.748-14-14.375 0-14.375 14-28.75 14-14.37 0-14.37-14-28.743-14-14.374 0-14.374 14-28.75 14-14.372 0-14.372-14-28.744-14-14.374 0-14.374 14-28.747 14-14.374 0-14.374-14-28.748-14-14.372 0-14.372 14-28.745 14-14.374 0-14.374-14-28.748-14-14.376 0-14.376 14-28.752 14-14.374 0-14.374-14-28.748-14s-14.374 14-28.748 14-14.374-14-28.748-14-14.374 14-28.748 14c-14.375 0-14.375-14-28.75-14-14.376 0-14.376 14-28.752 14-14.375 0-14.375-14-28.75-14-14.376 0-14.376 14-28.752 14-14.375 0-14.375-14-28.75-14-14.376 0-14.376 14-28.75 14-14.377 0-14.377-14-28.753-14-14.377 0-14.377 14-28.754 14-14.373 0-14.373-14-28.747-14-14.376 0-14.376 14-28.75 14-14.376 0-14.376-14-28.752-14-14.377 0-14.377 14-28.754 14s-14.377-14-28.755-14c-14.38 0-14.38 14-28.757 14s-14.372-14-28.75-14c-14.38 0-14.38 14-28.76 14C14.38 34 14.38 20 0 20V0h1150v20c-14.374 0-14.374 14-28.748 14" fill="#fff"/></g></svg>