<svg xmlns="http://www.w3.org/2000/svg" viewBox="0 0 1533.333 30.667"><defs><clipPath id="a"><path d="M0 23h1150V0H0z"/></clipPath></defs><g clip-path="url(#a)" transform="matrix(1.33333 0 0 -1.33333 0 30.667)"><path d="M1150 0c-9.017 0-13.728 4.59-17.514 8.276-3.412 3.323-5.877 5.724-11.234 5.724-5.358 0-7.823-2.4-11.235-5.724C1106.23 4.59 1101.52 0 1092.503 0s-13.728 4.59-17.514 8.276C1071.576 11.6 1069.11 14 1063.754 14c-5.358 0-7.822-2.4-11.234-5.724C1048.735 4.59 1044.024 0 1035.008 0c-9.017 0-13.73 4.59-17.515 8.276-3.412 3.323-5.877 5.724-11.235 5.724s-7.822-2.4-11.235-5.724C991.236 4.59 986.525 0 977.51 0c-9.018 0-13.73 4.59-17.515 8.276C956.583 11.6 954.118 14 948.76 14s-7.822-2.4-11.234-5.724C933.74 4.59 929.028 0 920.012 0c-9.017 0-13.73 4.59-17.515 8.276C899.085 11.6 896.62 14 891.263 14c-5.358 0-7.823-2.4-11.235-5.724C876.242 4.59 871.53 0 862.514 0c-9.017 0-13.73 4.59-17.515 8.276C841.586 11.6 839.12 14 833.763 14c-5.356 0-7.82-2.4-11.232-5.723C818.747 4.59 814.036 0 805.022 0c-9.018 0-13.73 4.59-17.516 8.276C784.094 11.6 781.63 14 776.27 14c-5.356 0-7.82-2.4-11.232-5.723C761.253 4.59 756.542 0 747.526 0s-13.728 4.59-17.513 8.277C726.603 11.6 724.137 14 718.78 14s-7.822-2.4-11.234-5.723C703.76 4.59 699.05 0 690.032 0c-9.015 0-13.726 4.59-17.51 8.276C669.108 11.6 666.644 14 661.286 14c-5.357 0-7.822-2.4-11.234-5.724C646.267 4.59 641.556 0 632.54 0c-9.018 0-13.73 4.59-17.516 8.276C611.612 11.6 609.147 14 603.788 14c-5.357 0-7.822-2.4-11.234-5.724C588.768 4.59 584.057 0 575.04 0c-9.016 0-13.728 4.59-17.514 8.276C554.116 11.6 551.65 14 546.292 14s-7.823-2.4-11.234-5.724C531.272 4.59 526.56 0 517.544 0s-13.728 4.59-17.514 8.276C496.62 11.6 494.153 14 488.796 14c-5.36 0-7.823-2.4-11.235-5.724C473.775 4.59 469.063 0 460.047 0c-9.017 0-13.73 4.59-17.516 8.276C439.118 11.6 436.653 14 431.293 14c-5.358 0-7.823-2.4-11.235-5.724C416.272 4.59 411.56 0 402.543 0c-9.016 0-13.73 4.59-17.515 8.276C381.616 11.6 379.15 14 373.792 14c-5.358 0-7.823-2.4-11.235-5.724C358.77 4.59 354.06 0 345.042 0s-13.73 4.59-17.516 8.276C324.114 11.6 321.65 14 316.29 14s-7.823-2.4-11.235-5.724C301.27 4.59 296.555 0 287.54 0c-9.02 0-13.73 4.59-17.517 8.276C266.61 11.6 264.145 14 258.786 14c-5.357 0-7.822-2.4-11.234-5.724C243.767 4.59 239.055 0 230.04 0c-9.018 0-13.73 4.59-17.516 8.276C209.112 11.6 206.647 14 201.29 14c-5.36 0-7.825-2.4-11.237-5.724C186.267 4.59 181.555 0 172.538 0c-9.017 0-13.73 4.59-17.517 8.276C151.61 11.6 149.145 14 143.785 14s-7.825-2.4-11.238-5.724C128.76 4.59 124.046 0 115.03 0c-9.02 0-13.73 4.59-17.518 8.276C94.1 11.6 91.632 14 86.272 14c-5.358 0-7.824-2.4-11.237-5.724C71.25 4.59 66.535 0 57.518 0 48.5 0 43.788 4.588 40 8.276 36.586 11.6 34.12 14 28.76 14c-5.362 0-7.828-2.4-11.24-5.724C13.73 4.59 9.02 0 0 0v9c5.36 0 7.827 2.4 11.24 5.724C15.03 18.412 19.74 23 28.76 23c9.018 0 13.73-4.588 17.518-8.276C49.69 11.4 52.158 9 57.518 9s7.825 2.4 11.238 5.724C72.543 18.41 77.256 23 86.273 23c9.02 0 13.73-4.59 17.518-8.276C107.205 11.4 109.67 9 115.03 9s7.825 2.4 11.238 5.724c3.786 3.687 8.5 8.276 17.516 8.276 9.018 0 13.73-4.59 17.517-8.276C164.714 11.4 167.18 9 172.54 9s7.824 2.4 11.236 5.724C187.56 18.41 192.272 23 201.29 23c9.016 0 13.728-4.59 17.514-8.276C222.216 11.4 224.68 9 230.04 9c5.356 0 7.82 2.4 11.233 5.724C245.06 18.41 249.77 23 258.786 23c9.017 0 13.73-4.59 17.516-8.276C279.714 11.4 282.18 9 287.54 9c5.358 0 7.823 2.4 11.235 5.724 3.787 3.687 8.5 8.276 17.516 8.276 9.018 0 13.73-4.59 17.516-8.276C337.218 11.4 339.683 9 345.042 9c5.358 0 7.823 2.4 11.235 5.724C360.063 18.41 364.775 23 373.792 23c9.017 0 13.73-4.59 17.516-8.276C394.72 11.4 397.185 9 402.543 9c5.36 0 7.824 2.4 11.236 5.724C417.564 18.41 422.276 23 431.292 23c9.018 0 13.73-4.59 17.517-8.276C452.222 11.4 454.687 9 460.046 9c5.358 0 7.823 2.4 11.235 5.724 3.787 3.687 8.5 8.276 17.516 8.276 9.016 0 13.728-4.59 17.514-8.276C509.72 11.4 512.187 9 517.544 9c5.358 0 7.823 2.4 11.234 5.724C532.564 18.41 537.275 23 546.292 23c9.016 0 13.728-4.59 17.514-8.276C567.216 11.4 569.682 9 575.04 9c5.357 0 7.822 2.4 11.234 5.724C590.06 18.41 594.77 23 603.788 23c9.018 0 13.73-4.59 17.516-8.276C624.716 11.4 627.18 9 632.54 9c5.356 0 7.82 2.4 11.233 5.724C647.56 18.41 652.27 23 661.287 23s13.728-4.59 17.513-8.277C682.21 11.4 684.676 9 690.032 9c5.358 0 7.822 2.4 11.235 5.724C705.052 18.41 709.764 23 718.78 23s13.727-4.59 17.512-8.276C739.704 11.4 742.17 9 747.526 9s7.822 2.4 11.233 5.723C762.543 18.41 767.254 23 776.27 23c9.017 0 13.73-4.59 17.515-8.276C797.197 11.4 799.662 9 805.02 9c5.357 0 7.822 2.4 11.233 5.724C820.038 18.41 824.75 23 833.763 23c9.017 0 13.73-4.59 17.515-8.276C854.69 11.4 857.155 9 862.514 9c5.358 0 7.823 2.4 11.235 5.724C877.534 18.41 882.246 23 891.262 23c9.016 0 13.727-4.59 17.513-8.276C912.188 11.4 914.653 9 920.012 9c5.358 0 7.823 2.4 11.235 5.724C935.033 18.41 939.744 23 948.76 23s13.728-4.59 17.514-8.276C969.687 11.4 972.15 9 977.51 9c5.356 0 7.82 2.4 11.233 5.724C992.53 18.41 997.24 23 1006.257 23c9.016 0 13.728-4.59 17.514-8.276C1027.185 11.4 1029.65 9 1035.008 9c5.357 0 7.822 2.4 11.234 5.724 3.787 3.687 8.498 8.276 17.515 8.276 9.016 0 13.727-4.59 17.514-8.276C1084.68 11.4 1087.145 9 1092.502 9s7.822 2.4 11.234 5.724c3.786 3.687 8.498 8.276 17.515 8.276 9.017 0 13.727-4.59 17.514-8.276C1142.178 11.4 1144.643 9 1150 9z" fill="#e7e8e9"/></g></svg>